<?xml version="1.0" standalone="no"?>
<!DOCTYPE svg PUBLIC "-//W3C//DTD SVG 20010904//EN"
 "http://www.w3.org/TR/2001/REC-SVG-20010904/DTD/svg10.dtd">
<svg version="1.0" xmlns="http://www.w3.org/2000/svg"
 width="260.000000pt" height="260.000000pt" viewBox="0 0 260.000000 260.000000"
 preserveAspectRatio="xMidYMid meet">
<metadata>
Created by potrace 1.11, written by Peter Selinger 2001-2013
</metadata>
<g transform="translate(0.000000,260.000000) scale(0.100000,-0.100000)"
fill="#000000" stroke="none">
<path d="M575 2459 c77 -78 154 -147 172 -155 25 -11 96 -14 320 -14 l288 0
188 -188 187 -187 0 -338 c0 -330 0 -337 -20 -337 -20 0 -20 -7 -20 -620 l0
-620 145 0 145 0 0 620 c0 538 -2 620 -15 620 -12 0 -15 55 -17 385 l-3 385
-250 250 -251 250 -305 0 -305 0 -44 45 -44 45 -155 0 -156 0 140 -141z"/>
<path d="M2038 2327 l272 -272 0 -408 c0 -400 0 -407 -20 -407 -20 0 -20 -7
-20 -620 l0 -620 145 0 145 0 0 620 c0 544 -2 620 -15 620 -13 0 -15 55 -15
434 0 279 -4 445 -10 463 -6 15 -109 126 -228 246 l-217 217 -155 0 -155 0
273 -273z"/>
<path d="M0 2106 l0 -346 50 0 c99 0 217 69 275 160 82 129 65 302 -40 419
-49 54 -146 101 -224 108 l-61 6 0 -347z"/>
<path d="M937 2109 c-106 -17 -227 -108 -258 -194 -10 -27 -19 -34 -48 -39
-31 -5 -78 -47 -333 -304 l-298 -298 0 -637 0 -637 125 0 125 0 0 608 0 607
210 210 c115 115 211 207 213 205 2 -3 13 -21 25 -40 33 -55 92 -107 157 -137
84 -39 195 -39 276 -1 79 36 133 89 171 166 30 60 33 75 32 152 0 57 -6 98
-18 125 -66 154 -220 241 -379 214z"/>
<path d="M540 620 l0 -620 145 0 145 0 0 620 0 620 -145 0 -145 0 0 -620z"/>
<path d="M1120 620 l0 -620 145 0 145 0 0 620 0 620 -145 0 -145 0 0 -620z"/>
</g>
</svg>
